<?xml version="1.0" encoding="utf-8"?>
<!-- Generator: Adobe Illustrator 18.1.0, SVG Export Plug-In . SVG Version: 6.00 Build 0)  -->
<svg version="1.1" id="Layer_1" xmlns:serif="http://www.serif.com/"
	 xmlns="http://www.w3.org/2000/svg" xmlns:xlink="http://www.w3.org/1999/xlink" x="0px" y="0px" viewBox="-94 -4 800 800"
	 enable-background="new -94 -4 800 800" xml:space="preserve">
<g>
	<g id="Icons1" serif:id="Icons">
		<g id="Strike">
		</g>
		<g id="H1">
		</g>
		<g id="H2">
		</g>
		<g id="H3">
		</g>
		<g id="list-ul">
		</g>
		<g id="hamburger-1">
		</g>
		<g id="hamburger-2">
		</g>
		<g id="list-ol">
		</g>
		<g id="list-task">
		</g>
		<g id="trash">
		</g>
		<g id="vertical-menu">
		</g>
		<g id="horizontal-menu">
		</g>
		<g id="sidebar-2">
		</g>
		<g id="Pen">
		</g>
		<g id="Pen1" serif:id="Pen">
		</g>
		<g id="clock">
		</g>
		<g id="external-link">
		</g>
		<g id="hr">
		</g>
		<g id="info">
		</g>
		<g id="warning">
		</g>
		<g id="plus-circle">
		</g>
		<g id="minus-circle">
		</g>
		<g id="vue">
		</g>
		<g id="cog">
		</g>
		<g id="logo">
		</g>
		<g id="radio-check">
		</g>
		<g id="eye-slash">
		</g>
		<g id="eye">
		</g>
		<g id="toggle-off">
		</g>
		<g id="shredder">
		</g>
		<g id="spinner--loading--dots-" serif:id="spinner [loading, dots]">
		</g>
		<g id="react">
		</g>
		<g id="check-selected">
			<g transform="matrix(0.10009,1.645e-33,1.645e-33,0.10009,511.942,319.993)">
				<path fill="#C61C22" d="M-2041.7,3370.5c694.5-6.7,1382.2-294.1,1876.7-782.4c587.3-579.8,889.7-1437.8,784.3-2256.8
					c-180.8-1403.5-1335.6-2356-2678.2-2356c-1020.1,0-2011.5,637.5-2446.3,1562c-332.9,707.8-333.5,1562.2,0,2271.2
					c431.7,917.9,1406.9,1552.1,2428.9,1561.9C-2064.8,3370.5-2053.2,3370.5-2041.7,3370.5z M-2073.4,2920.9
					c-1037.4-10-2005.4-811.5-2197.8-1839.2C-4407,357.1-4150.8-426.9-3617.3-941.4c623-600.8,1602.1-802.1,2416.1-461.6
					C-472.7-1098.2,72.4-390.8,172.9,388.7C259,1056.8,19,1757-452.6,2239.3c-413.6,423.1-993.7,675.7-1592,681.4
					C-2054.2,2920.9-2063.8,2920.9-2073.4,2920.9z"/>
			</g>
			<g transform="matrix(1.20036,0,0,1.20036,-108.995,-70.5272)">
				<path fill="#C61C22" d="M345.6,540.1"/>
			</g>
		</g>
		<g id="turn-off">
		</g>
		<g id="code-block">
		</g>
		<g id="user">
		</g>
		<g id="coffee-bean">
		</g>
		<g transform="matrix(0.638317,0.368532,-0.368532,0.638317,785.021,-208.975)">
			<g id="coffee-beans">
				<g id="coffee-bean1" serif:id="coffee-bean">
				</g>
			</g>
		</g>
		<g id="coffee-bean-filled">
		</g>
		<g transform="matrix(0.638317,0.368532,-0.368532,0.638317,913.062,-208.975)">
			<g id="coffee-beans-filled">
				<g id="coffee-bean2" serif:id="coffee-bean">
				</g>
			</g>
		</g>
		<g id="clipboard">
		</g>
		<g transform="matrix(1,0,0,1,128.011,1.35415)">
			<g id="clipboard-paste">
			</g>
		</g>
		<g id="clipboard-copy">
		</g>
		<g id="Layer1">
		</g>
	</g>
	<path fill="#C61C22" d="M229,391.1c-6.5-6.5-16.9-6.5-23.3,0c-6.5,6.5-6.5,16.9,0,23.3l0,0l6.1,6.1l-59.3,59.3
		c-6.6,6.6-6.6,17.3,0,23.8l31.3,31.3c6.6,6.6,17.3,6.6,23.9,0l59.3-59.3l6.1,6.1c6.5,6.5,16.9,6.5,23.3,0c6.5-6.5,6.5-16.9,0-23.3
		l0,0L229,391.1z"/>
	<polygon fill="#C61C22" points="333.9,243.3 259.1,386.3 301.2,428.4 444.5,353.7 444.5,243.3 	"/>
</g>
</svg>
