<?xml version="1.0" encoding="utf-8"?>
<!-- Generator: Adobe Illustrator 18.1.0, SVG Export Plug-In . SVG Version: 6.00 Build 0)  -->
<svg version="1.1" id="Layer_1" xmlns:serif="http://www.serif.com/"
	 xmlns="http://www.w3.org/2000/svg" xmlns:xlink="http://www.w3.org/1999/xlink" x="0px" y="0px" viewBox="-94 -4 800 800"
	 enable-background="new -94 -4 800 800" xml:space="preserve">
<g>
	<g id="Icons1" serif:id="Icons">
		<g id="Strike">
		</g>
		<g id="H1">
		</g>
		<g id="H2">
		</g>
		<g id="H3">
		</g>
		<g id="list-ul">
		</g>
		<g id="hamburger-1">
		</g>
		<g id="hamburger-2">
		</g>
		<g id="list-ol">
		</g>
		<g id="list-task">
		</g>
		<g id="trash">
		</g>
		<g id="vertical-menu">
		</g>
		<g id="horizontal-menu">
		</g>
		<g id="sidebar-2">
		</g>
		<g id="Pen">
		</g>
		<g id="Pen1" serif:id="Pen">
		</g>
		<g id="clock">
		</g>
		<g id="external-link">
		</g>
		<g id="hr">
		</g>
		<g id="info">
		</g>
		<g id="warning">
		</g>
		<g id="plus-circle">
		</g>
		<g id="minus-circle">
		</g>
		<g id="vue">
		</g>
		<g id="cog">
		</g>
		<g id="logo">
		</g>
		<g id="radio-check">
		</g>
		<g id="eye-slash">
		</g>
		<g id="eye">
		</g>
		<g id="toggle-off">
		</g>
		<g id="shredder">
		</g>
		<g id="spinner--loading--dots-" serif:id="spinner [loading, dots]">
		</g>
		<g id="react">
		</g>
		<g id="check-selected">
			<g transform="matrix(0.10009,1.645e-33,1.645e-33,0.10009,511.942,319.993)">
				<path fill="#FBC5A5" d="M-2124.9,3457c694.5-6.7,1382.2-294.1,1876.7-782.4c587.3-579.8,889.7-1437.8,784.3-2256.8
					c-180.8-1403.5-1335.6-2356-2678.2-2356c-1020.1,0-2011.5,637.5-2446.3,1562c-332.9,707.8-333.5,1562.2,0,2271.2
					c431.7,917.9,1406.9,1552.1,2428.9,1561.9C-2148,3457-2136.4,3457-2124.9,3457z M-2156.6,3007.4
					c-1037.4-10-2005.4-811.5-2197.8-1839.2C-4490.2,443.6-4234-340.4-3700.5-854.9c623-600.8,1602.1-802.1,2416.1-461.6
					C-555.9-1011.7-10.8-304.3,89.7,475.2c86.1,668.1-153.9,1368.3-625.5,1850.6c-413.6,423.1-993.7,675.7-1592,681.4
					C-2137.4,3007.4-2147,3007.4-2156.6,3007.4z"/>
			</g>
			<g transform="matrix(1.20036,0,0,1.20036,-108.995,-70.5272)">
				<path fill="#FBC5A5" d="M338.7,547.3"/>
			</g>
		</g>
		<g id="turn-off">
		</g>
		<g id="code-block">
		</g>
		<g id="user">
		</g>
		<g id="coffee-bean">
		</g>
		<g transform="matrix(0.638317,0.368532,-0.368532,0.638317,785.021,-208.975)">
			<g id="coffee-beans">
				<g id="coffee-bean1" serif:id="coffee-bean">
				</g>
			</g>
		</g>
		<g id="coffee-bean-filled">
		</g>
		<g transform="matrix(0.638317,0.368532,-0.368532,0.638317,913.062,-208.975)">
			<g id="coffee-beans-filled">
				<g id="coffee-bean2" serif:id="coffee-bean">
				</g>
			</g>
		</g>
		<g id="clipboard">
		</g>
		<g transform="matrix(1,0,0,1,128.011,1.35415)">
			<g id="clipboard-paste">
			</g>
		</g>
		<g id="clipboard-copy">
		</g>
		<g id="Layer1">
		</g>
	</g>
	<path fill="#FBC5A5" d="M465.5,435.8c0,0-57.4,20.8-82.4,35.9c-32.6,19.7-44.6,47-79.5,63c-46.1,13.5-52,17.2-112.4-42.5
		c-22.1-21.9-68.9-101.4-68.9-101.4c-6.5-10.9-23.9-25.4-14.2-35.2s28.2-5.6,38.3,4.4l36.5,43.1c10.4,9,26.1,13.4,39.1,1
		c18.5-19,30.9-35.2,36.5-60l20.2-94.5c2.3-6.8,9.6-15.2,19.4-12.3c9.9,2.9,12,15.3,10,22.2l-14.3,97.3c0.4,8.5,7.5,17.1,15.5,7.6
		l64.7-101.9c4.8-7.1,14.9-11.3,21.8-4.5c9.1,9,11.2,17.9,5.6,23.2l-61.7,102.6c-2.4,5.6,3.7,10.5,8.9,8.4l85.3-74.7
		c2.8-2.2,10.6-3.4,16.1,3.9c5.5,7.3,2.4,17.8-0.9,19.8l-80.6,77.6c-5.7,8.4-1.2,14.8,7,15.2l77.9-22.5c5.9-2.5,13.5,3.2,15.7,8.7
		C470.6,425.8,469.9,431.3,465.5,435.8L465.5,435.8L465.5,435.8z"/>
</g>
</svg>
